static_grf.mot
version=1
nRows=30
nColumns 19
inDegrees=yes
endheader
time	1_ground_force_vx	1_ground_force_vy	1_ground_force_vz	1_ground_force_px	1_ground_force_py	1_ground_force_pz	1_ground_torque_x	1_ground_torque_y	1_ground_torque_z	2_ground_force_vx	2_ground_force_vy	2_ground_force_vz	2_ground_force_px	2_ground_force_py	2_ground_force_pz	2_ground_torque_x	2_ground_torque_y	2_ground_torque_z
            1.501500	           -6.447433	          400.170547	          -36.100340	           -0.257901	            0.005896	           -0.330013	           -0.013854	            0.859847	           -0.077569	            3.174172	          449.020794	           39.236873	           -0.276598	            0.005445	           -0.686331	            0.002802	            0.396330	            0.034633
            1.502000	           -6.263848	          399.629558	          -36.057255	           -0.258015	            0.005896	           -0.330013	           -0.013019	            0.830579	           -0.074940	            2.937991	          449.571868	           39.379728	           -0.276249	            0.005445	           -0.686221	            0.002549	            0.390009	            0.034162
            1.502500	           -6.401182	          399.809434	          -35.964429	           -0.257786	            0.005896	           -0.330206	           -0.013234	            0.826600	           -0.074356	            3.168109	          450.678791	           39.055074	           -0.276314	            0.005447	           -0.686622	            0.002995	            0.426113	            0.036926
            1.503000	           -6.767845	          399.989402	          -35.916893	           -0.258155	            0.005896	           -0.330072	           -0.013125	            0.775682	           -0.069652	            3.311440	          449.941731	           39.333955	           -0.276545	            0.005446	           -0.686549	            0.002756	            0.374536	            0.032742
            1.503500	           -6.263896	          399.269223	          -36.104661	           -0.258135	            0.005896	           -0.330085	           -0.012822	            0.817298	           -0.073906	            3.077732	          449.757688	           39.051829	           -0.276318	            0.005447	           -0.686614	            0.002815	            0.411354	            0.035717
            1.504000	           -6.585126	          401.071818	          -36.096134	           -0.257879	            0.005895	           -0.329795	           -0.012744	            0.776165	           -0.069854	            2.939299	          449.203754	           39.331486	           -0.276413	            0.005445	           -0.686266	            0.002650	            0.404971	            0.035459
            1.504500	           -6.538987	          399.449466	          -36.103205	           -0.258113	            0.005896	           -0.330051	           -0.012880	            0.786783	           -0.071111	            3.218384	          449.757359	           39.286410	           -0.276361	            0.005446	           -0.686447	            0.002975	            0.415721	            0.036313
            1.505000	           -6.539673	          400.712082	          -36.281218	           -0.257742	            0.005896	           -0.330025	           -0.013593	            0.832893	           -0.075412	            3.174172	          449.020794	           39.236873	           -0.276512	            0.005444	           -0.686122	            0.002751	            0.389090	            0.034000
            1.505500	           -6.631194	          399.810766	          -36.284855	           -0.257808	            0.005896	           -0.330100	           -0.013733	            0.828023	           -0.075147	            3.358893	          449.758201	           39.192494	           -0.276396	            0.005446	           -0.686406	            0.002829	            0.378764	            0.033006
            1.506000	           -6.309595	          400.350219	          -35.962337	           -0.258022	            0.005895	           -0.329869	           -0.013164	            0.835260	           -0.075029	            3.081822	          448.652007	           39.282527	           -0.276419	            0.005445	           -0.686211	            0.002521	            0.366977	            0.032131
            1.506500	           -6.171788	          399.448751	          -35.920691	           -0.258113	            0.005896	           -0.330173	           -0.012785	            0.827492	           -0.074413	            3.029491	          450.126363	           38.912379	           -0.276251	            0.005447	           -0.686650	            0.003193	            0.474347	            0.041006
            1.507000	           -6.538957	          400.530667	          -36.006855	           -0.258044	            0.005896	           -0.330074	           -0.013064	            0.800230	           -0.071939	            3.216973	          450.126371	           39.100012	           -0.276481	            0.005446	           -0.686610	            0.002531	            0.354157	            0.030764
            1.507500	           -6.217939	          399.269035	          -36.058915	           -0.257941	            0.005896	           -0.330128	           -0.012790	            0.821258	           -0.074170	            3.127987	          448.836484	           39.236236	           -0.276480	            0.005445	           -0.686356	            0.002381	            0.341632	            0.029865
            1.508000	           -6.263654	          399.809461	          -35.964770	           -0.258241	            0.005896	           -0.330063	           -0.012960	            0.827249	           -0.074415	            3.123211	          450.126534	           38.959267	           -0.276366	            0.005447	           -0.686776	            0.002893	            0.417009	            0.036093
            1.508500	           -6.355810	          399.269599	          -36.196145	           -0.258090	            0.005896	           -0.330238	           -0.013484	            0.847038	           -0.076789	            3.123355	          450.125363	           39.287764	           -0.276409	            0.005446	           -0.686651	            0.002909	            0.419208	            0.036589
            1.509000	           -6.447268	          399.269188	          -36.104205	           -0.258107	            0.005896	           -0.330133	           -0.013251	            0.820643	           -0.074207	            2.981353	          450.494141	           39.007569	           -0.276336	            0.005446	           -0.686562	            0.002946	            0.445197	            0.038549
            1.509500	           -6.309772	          399.449510	          -36.103774	           -0.257854	            0.005896	           -0.330098	           -0.012394	            0.784651	           -0.070920	            3.168691	          450.495320	           38.866705	           -0.276325	            0.005447	           -0.686855	            0.002728	            0.387848	            0.033462
            1.510000	           -6.539478	          400.891985	          -36.188733	           -0.258114	            0.005895	           -0.329838	           -0.013045	            0.799726	           -0.072192	            2.934462	          450.494306	           38.913733	           -0.276504	            0.005446	           -0.686770	            0.002937	            0.450898	            0.038949
            1.510500	           -6.492578	          400.709928	          -35.776913	           -0.258128	            0.005894	           -0.329686	           -0.012571	            0.775871	           -0.069273	            3.123958	          449.941724	           39.146323	           -0.276620	            0.005445	           -0.686551	            0.002305	            0.331978	            0.028883
            1.511000	           -6.401362	          400.170162	          -36.008742	           -0.257915	            0.005895	           -0.329859	           -0.012466	            0.779310	           -0.070125	            3.128049	          448.835982	           39.377021	           -0.276486	            0.005445	           -0.686271	            0.002597	            0.372580	            0.032687
            1.511500	           -6.447319	          400.170350	          -36.054481	           -0.258046	            0.005897	           -0.330336	           -0.013593	            0.843674	           -0.076013	            2.984841	          449.572037	           39.379709	           -0.276638	            0.005445	           -0.686469	            0.003018	            0.454595	            0.039820
            1.512000	           -6.309787	          398.908880	          -36.151945	           -0.258061	            0.005897	           -0.330254	           -0.013415	            0.848123	           -0.076863	            2.891764	          449.387893	           39.285235	           -0.276526	            0.005445	           -0.686368	            0.002761	            0.429081	            0.037510
            1.512500	           -6.493390	          400.170734	          -36.146079	           -0.257823	            0.005895	           -0.329922	           -0.013126	            0.808947	           -0.073070	            2.984135	          449.756513	           39.286509	           -0.276534	            0.005445	           -0.686405	            0.002943	            0.443492	            0.038739
            1.513000	           -6.447726	          400.531471	          -36.190506	           -0.257750	            0.005895	           -0.329766	           -0.012919	            0.802500	           -0.072511	            3.171535	          449.757190	           39.286430	           -0.276400	            0.005445	           -0.686322	            0.002832	            0.401639	            0.035083
            1.513500	           -6.264597	          399.991269	          -36.330844	           -0.257898	            0.005897	           -0.330304	           -0.013017	            0.831148	           -0.075492	            3.173426	          449.205604	           39.049818	           -0.276706	            0.005444	           -0.686308	            0.002829	            0.400497	            0.034816
            1.514000	           -6.493503	          400.170931	          -36.191939	           -0.257823	            0.005896	           -0.330021	           -0.013135	            0.809438	           -0.073207	            3.172802	          449.389410	           39.144331	           -0.276484	            0.005445	           -0.686326	            0.003058	            0.433080	            0.037724
            1.514500	           -6.126550	          400.891475	          -36.052185	           -0.257971	            0.005896	           -0.330104	           -0.012675	            0.829415	           -0.074589	            3.314640	          449.021971	           39.049101	           -0.276473	            0.005445	           -0.686205	            0.003004	            0.406889	            0.035385
            1.515000	           -6.172552	          399.269831	          -36.242452	           -0.257981	            0.005897	           -0.330382	           -0.012819	            0.829204	           -0.075268	            3.126076	          449.388237	           39.425920	           -0.276564	            0.005445	           -0.686535	            0.002829	            0.406611	            0.035673
            1.515500	           -6.264286	          398.909478	          -36.289630	           -0.258102	            0.005896	           -0.330221	           -0.013309	            0.847529	           -0.077101	            3.170246	          450.125197	           39.381600	           -0.276524	            0.005446	           -0.686735	            0.002515	            0.357020	            0.031236
            1.516000	           -6.539329	          399.450056	          -36.240769	           -0.257917	            0.005896	           -0.330209	           -0.013403	            0.818729	           -0.074281	            3.217802	          449.940891	           39.474779	           -0.276302	            0.005446	           -0.686549	            0.003001	            0.419612	            0.036814
